<svg width="12" height="12" viewBox="0 0 12 12" fill="none" xmlns="http://www.w3.org/2000/svg">
	<path fill-rule="evenodd" clip-rule="evenodd" d="M1.5 3.98864C1.5 3.02806 2.27852 2.25 3.23864 2.25H4.75977C4.96688 2.25 5.13477 2.41789 5.13477 2.625C5.13477 2.8321 4.96688 3 4.75977 3H3.23864C2.69261 3 2.25 3.4424 2.25 3.98864V8.76135C2.25 9.30757 2.69261 9.75 3.23864 9.75H8.01135C8.55735 9.75 9 9.30757 9 8.76135V7.24091C9 7.0338 9.16792 6.86591 9.375 6.86591C9.58208 6.86591 9.75 7.0338 9.75 7.24091V8.76135C9.75 9.72195 8.9715 10.5 8.01135 10.5H3.23864C2.27852 10.5 1.5 9.72195 1.5 8.76135V3.98864Z" fill="#90A1B9" />
	<path fill-rule="evenodd" clip-rule="evenodd" d="M6.75 1.875C6.75 1.66789 6.91789 1.5 7.125 1.5H10.125C10.3321 1.5 10.5 1.66789 10.5 1.875V4.875C10.5 5.0821 10.3321 5.25 10.125 5.25C9.91792 5.25 9.75 5.0821 9.75 4.875V2.25H7.125C6.91789 2.25 6.75 2.0821 6.75 1.875Z" fill="#90A1B9" />
	<path fill-rule="evenodd" clip-rule="evenodd" d="M10.1168 1.89518C10.2631 2.04186 10.2627 2.2793 10.116 2.42551L6.63974 5.89051C6.49305 6.03671 6.25562 6.03633 6.1094 5.88965C5.9632 5.74296 5.96358 5.50553 6.11027 5.35932L9.5865 1.89432C9.7332 1.74811 9.97065 1.74849 10.1168 1.89518Z" fill="#90A1B9" />
</svg>
